<svg xmlns="http://www.w3.org/2000/svg" viewBox="0 0 240 180" role="img" aria-label="Browservenster met een website">
  <!-- Cartoon browser window with a simple page layout, for the website workshop. -->
  <ellipse cx="120" cy="166" rx="96" ry="9" fill="#040707" opacity="0.15"/>
  <rect x="24" y="20" width="192" height="136" rx="14" fill="#ffffff" stroke="#040707" stroke-width="4"/>
  <path d="M24 34 Q24 20 38 20 H202 Q216 20 216 34 V46 H24 Z" fill="#dedfe0" stroke="#040707" stroke-width="4" stroke-linejoin="round"/>
  <g stroke="#040707" stroke-width="3"><circle cx="42" cy="33" r="5" fill="#f2a426"/><circle cx="58" cy="33" r="5" fill="#e2a02e"/><circle cx="74" cy="33" r="5" fill="#a5a7aa"/></g>
  <rect x="90" y="27" width="110" height="12" rx="6" fill="#ffffff" stroke="#040707" stroke-width="3"/>
  <!-- page -->
  <rect x="38" y="58" width="164" height="30" rx="6" fill="#f2a426" stroke="#040707" stroke-width="3"/>
  <rect x="50" y="68" width="60" height="7" rx="3.5" fill="#040707"/>
  <rect x="38" y="98" width="70" height="46" rx="6" fill="#dedfe0" stroke="#040707" stroke-width="3"/>
  <path d="M46 136 L64 116 L76 128 L84 120 L100 136 Z" fill="#8b8d90" stroke="#040707" stroke-width="3" stroke-linejoin="round"/>
  <circle cx="92" cy="110" r="5" fill="#e2a02e" stroke="#040707" stroke-width="2.5"/>
  <g fill="#5a5a5a"><rect x="118" y="100" width="84" height="7" rx="3.5"/><rect x="118" y="114" width="70" height="7" rx="3.5"/><rect x="118" y="128" width="78" height="7" rx="3.5"/></g>
  <!-- cursor -->
  <path d="M168 118 L168 150 L176 142 L182 156 L189 153 L183 139 L194 139 Z" fill="#ffffff" stroke="#040707" stroke-width="3.5" stroke-linejoin="round"/>
</svg>
